<svg width="84" height="84" viewBox="0 0 84 84" fill="none" xmlns="http://www.w3.org/2000/svg">
<path d="M63.6674 76.9437H20.3334C18.8992 76.9421 17.5241 76.3717 16.51 75.3575C15.4958 74.3433 14.9254 72.9683 14.9238 71.5341V12.4653C14.9254 11.031 15.4958 9.65598 16.51 8.64182C17.5241 7.62766 18.8992 7.05722 20.3334 7.05566H63.6674C65.1016 7.05722 66.4766 7.62766 67.4908 8.64182C68.505 9.65598 69.0754 11.031 69.077 12.4653V71.5341C69.0754 72.9683 68.505 74.3433 67.4908 75.3575C66.4766 76.3717 65.1016 76.9421 63.6674 76.9437ZM20.3334 9.74366C19.6119 9.74455 18.9202 10.0316 18.4099 10.5418C17.8997 11.052 17.6127 11.7437 17.6118 12.4653V71.5341C17.6127 72.2556 17.8997 72.9473 18.4099 73.4575C18.9202 73.9678 19.6119 74.2548 20.3334 74.2557H63.6674C64.3889 74.2548 65.0806 73.9678 65.5908 73.4575C66.101 72.9473 66.3881 72.2556 66.389 71.5341V12.4653C66.3881 11.7437 66.101 11.052 65.5908 10.5418C65.0806 10.0316 64.3889 9.74455 63.6674 9.74366H20.3334Z" fill="#008F5E"/>
<path d="M42.0002 51.102C40.3823 51.102 38.8008 50.6222 37.4555 49.7234C36.1103 48.8245 35.0619 47.5468 34.4428 46.052C33.8237 44.5573 33.6619 42.9125 33.9776 41.3257C34.2934 39.7389 35.0726 38.2814 36.2168 37.1374C37.3609 35.9935 38.8186 35.2146 40.4054 34.8992C41.9923 34.5837 43.6371 34.746 45.1317 35.3653C46.6264 35.9847 47.9038 37.0334 48.8024 38.3788C49.701 39.7242 50.1805 41.3059 50.1802 42.9238C50.1773 45.0922 49.3145 47.1709 47.781 48.7041C46.2476 50.2372 44.1686 51.0996 42.0002 51.102ZM42.0002 37.431C40.9141 37.431 39.8523 37.7531 38.9492 38.3565C38.0461 38.96 37.3421 39.8176 36.9264 40.8211C36.5107 41.8246 36.4019 42.9288 36.6138 43.9941C36.8256 45.0594 37.3486 46.0379 38.1166 46.806C38.8845 47.5741 39.863 48.0972 40.9283 48.3092C41.9936 48.5212 43.0978 48.4126 44.1013 47.9971C45.1049 47.5815 45.9626 46.8777 46.5662 45.9747C47.1698 45.0717 47.492 44.01 47.4922 42.9238C47.4908 41.4676 46.9118 40.0714 45.8822 39.0416C44.8526 38.0118 43.4565 37.4326 42.0002 37.431Z" fill="#008F5E"/>
<path d="M42.0004 57.6566C41.6861 57.6567 41.3818 57.5468 41.1402 57.3458L39.4165 55.9102L37.2754 56.5822C36.9749 56.676 36.6511 56.6613 36.3604 56.5408C36.0696 56.4203 35.8304 56.2016 35.6844 55.9228L34.6436 53.9362L32.4101 53.7321C32.0971 53.7036 31.8041 53.5662 31.5818 53.344C31.3596 53.1218 31.2223 52.8287 31.1938 52.5158L30.9905 50.2822L29.003 49.2423C28.7241 49.0963 28.5052 48.8569 28.3847 48.566C28.2642 48.2751 28.2497 47.9511 28.3436 47.6505L29.0156 45.5094L27.5776 43.7823C27.3766 43.5409 27.2666 43.2367 27.2666 42.9226C27.2666 42.6085 27.3766 42.3043 27.5776 42.0628L29.0123 40.3383L28.3403 38.1972C28.2465 37.8967 28.2612 37.5729 28.3817 37.2822C28.5022 36.9914 28.7209 36.7522 28.9997 36.6062L30.9871 35.5654L31.1904 33.3319C31.2189 33.0189 31.3563 32.7259 31.5785 32.5036C31.8007 32.2814 32.0938 32.1441 32.4067 32.1155L34.6403 31.9123L35.681 29.9248C35.8271 29.646 36.0663 29.4273 36.357 29.3068C36.6478 29.1863 36.9716 29.1717 37.272 29.2654L39.4132 29.9374L41.1368 28.5027C41.3783 28.3016 41.6827 28.1914 41.997 28.1914C42.3113 28.1914 42.6157 28.3016 42.8572 28.5027L44.5808 29.9374L46.722 29.2654C47.0224 29.1717 47.3462 29.1863 47.637 29.3068C47.9277 29.4273 48.1669 29.646 48.313 29.9248L49.3537 31.9123L51.5873 32.1155C51.9002 32.1441 52.1933 32.2814 52.4155 32.5036C52.6377 32.7259 52.775 33.0189 52.8036 33.3319L53.0069 35.5654L54.9943 36.6062C55.2731 36.7522 55.4918 36.9914 55.6123 37.2822C55.7328 37.5729 55.7475 37.8967 55.6537 38.1972L54.9817 40.3383L56.4164 42.0628C56.6174 42.3043 56.7274 42.6085 56.7274 42.9226C56.7274 43.2367 56.6174 43.5409 56.4164 43.7823L54.9817 45.506L55.6537 47.6471C55.7477 47.9477 55.7332 48.2717 55.6126 48.5626C55.4921 48.8535 55.2733 49.0929 54.9943 49.2389L53.0069 50.2789L52.8036 52.5124C52.775 52.8254 52.6377 53.1184 52.4155 53.3407C52.1933 53.5629 51.9002 53.7002 51.5873 53.7287L49.3537 53.9329L48.313 55.9195C48.1669 56.1983 47.9277 56.417 47.637 56.5375C47.3462 56.658 47.0224 56.6726 46.722 56.5789L44.5808 55.9069L42.8572 57.3424C42.6169 57.5439 42.3139 57.655 42.0004 57.6566ZM39.7139 53.066C40.0281 53.0658 40.3325 53.1758 40.574 53.3768L42.002 54.5637L43.43 53.3768C43.6023 53.2329 43.8079 53.1345 44.028 53.0905C44.2481 53.0464 44.4757 53.0582 44.69 53.1248L46.4524 53.6758L47.3117 52.0336C47.4169 51.8351 47.5702 51.6661 47.7576 51.5421C47.945 51.4181 48.1605 51.343 48.3844 51.3238L50.2324 51.1558L50.4004 49.3078C50.4208 49.0842 50.4969 48.8692 50.6217 48.6826C50.7466 48.4959 50.9163 48.3435 51.1152 48.2394L52.7566 47.3758L52.2047 45.6118C52.1381 45.3975 52.1263 45.1699 52.1703 44.9498C52.2144 44.7297 52.3128 44.5241 52.4567 44.3518L53.6436 42.9238L52.4567 41.4958C52.3128 41.3236 52.2144 41.118 52.1703 40.8979C52.1263 40.6778 52.1381 40.4502 52.2047 40.2358L52.7566 38.4668L51.1152 37.6075C50.9164 37.5033 50.7468 37.3511 50.6219 37.1646C50.4971 36.9781 50.4209 36.7633 50.4004 36.5398L50.2324 34.6918L48.3844 34.5238C48.1605 34.5035 47.9453 34.4273 47.7585 34.3023C47.5717 34.1772 47.4192 34.0074 47.315 33.8081L46.4524 32.1659L44.6884 32.7178C44.474 32.7844 44.2464 32.7962 44.0263 32.7522C43.8062 32.7081 43.6006 32.6097 43.4284 32.4658L42.0004 31.2781L40.5724 32.4658C40.4001 32.6097 40.1945 32.7081 39.9744 32.7522C39.7543 32.7962 39.5267 32.7844 39.3124 32.7178L37.5484 32.1659L36.689 33.8073C36.5847 34.0071 36.4317 34.1775 36.2443 34.3027C36.0568 34.4279 35.8409 34.5039 35.6164 34.5238L33.7684 34.6918L33.6004 36.5398C33.58 36.7635 33.5038 36.9784 33.379 37.1651C33.2541 37.3517 33.0844 37.5041 32.8855 37.6083L31.2484 38.4668L31.796 40.2358C31.8626 40.4502 31.8744 40.6778 31.8304 40.8979C31.7864 41.118 31.6879 41.3236 31.544 41.4958L30.3571 42.9238L31.544 44.3518C31.6879 44.5241 31.7864 44.7297 31.8304 44.9498C31.8744 45.1699 31.8626 45.3975 31.796 45.6118L31.2484 47.3758L32.8897 48.236C33.0883 48.341 33.2574 48.4942 33.3816 48.6814C33.5057 48.8686 33.5809 49.084 33.6004 49.3078L33.7684 51.1558L35.6164 51.3238C35.8401 51.3441 36.0553 51.4201 36.2421 51.545C36.4289 51.6699 36.5814 51.8396 36.6857 52.0387L37.5484 53.6758L39.3124 53.1265C39.4423 53.086 39.5777 53.0656 39.7139 53.066Z" fill="#008F5E"/>
<path d="M26.3626 70.0835C26.1343 70.0835 25.9097 70.0253 25.7101 69.9145C25.5104 69.8036 25.3423 69.6437 25.2216 69.4499C25.1009 69.2561 25.0316 69.0347 25.0202 68.8066C25.0088 68.5785 25.0556 68.3513 25.1564 68.1464L33.0121 52.1747C33.1694 51.8547 33.4473 51.6104 33.7847 51.4954C34.1222 51.3804 34.4915 51.4042 34.8114 51.5615C35.1313 51.7187 35.3756 51.9967 35.4906 52.3341C35.6056 52.6715 35.5819 53.0408 35.4246 53.3607L28.5727 67.2905L32.624 67.1006L38.7182 54.7081C38.8755 54.3882 39.1534 54.1439 39.4908 54.0289C39.8283 53.9139 40.1976 53.9376 40.5175 54.0949C40.8374 54.2522 41.0817 54.5301 41.1967 54.8675C41.3117 55.205 41.288 55.5743 41.1307 55.8942L34.6862 68.9982C34.5802 69.2141 34.4182 69.3975 34.2171 69.5295C34.016 69.6614 33.7832 69.737 33.543 69.7483L26.4256 70.0843L26.3626 70.0835ZM57.6375 70.0835H57.5745L50.4572 69.7475C50.217 69.7362 49.9841 69.6606 49.7831 69.5286C49.582 69.3967 49.42 69.2132 49.314 68.9973L42.8695 55.8933C42.7122 55.5734 42.6884 55.2041 42.8034 54.8667C42.9184 54.5293 43.1628 54.2513 43.4827 54.0941C43.8026 53.9368 44.1719 53.913 44.5093 54.028C44.8468 54.143 45.1247 54.3873 45.282 54.7073L51.3762 67.0998L55.4275 67.2896L48.5764 53.3607C48.427 53.0419 48.4087 52.6772 48.5253 52.345C48.642 52.0129 48.8843 51.7397 49.2003 51.5843C49.5162 51.4289 49.8805 51.4037 50.2148 51.5141C50.5491 51.6245 50.8268 51.8617 50.9881 52.1747L58.8429 68.1464C58.9437 68.3513 58.9906 68.5785 58.9792 68.8066C58.9678 69.0347 58.8984 69.2561 58.7777 69.4499C58.657 69.6437 58.4889 69.8036 58.2893 69.9145C58.0896 70.0253 57.865 70.0835 57.6367 70.0835H57.6375ZM61.4814 16.604H22.5188C22.1624 16.604 21.8205 16.4624 21.5685 16.2104C21.3164 15.9583 21.1748 15.6165 21.1748 15.26C21.1748 14.9036 21.3164 14.5617 21.5685 14.3097C21.8205 14.0576 22.1624 13.916 22.5188 13.916H61.4814C61.8378 13.916 62.1797 14.0576 62.4317 14.3097C62.6838 14.5617 62.8254 14.9036 62.8254 15.26C62.8254 15.6165 62.6838 15.9583 62.4317 16.2104C62.1797 16.4624 61.8378 16.604 61.4814 16.604ZM61.4814 24.332H22.5188C22.1624 24.332 21.8205 24.1904 21.5685 23.9384C21.3164 23.6863 21.1748 23.3445 21.1748 22.988C21.1748 22.6316 21.3164 22.2897 21.5685 22.0377C21.8205 21.7856 22.1624 21.644 22.5188 21.644H61.4814C61.8378 21.644 62.1797 21.7856 62.4317 22.0377C62.6838 22.2897 62.8254 22.6316 62.8254 22.988C62.8254 23.3445 62.6838 23.6863 62.4317 23.9384C62.1797 24.1904 61.8378 24.332 61.4814 24.332Z" fill="#008F5E"/>
</svg>
