<svg width="84" height="84" viewBox="0 0 84 84" fill="none" xmlns="http://www.w3.org/2000/svg">
<path d="M61.0202 36.257C60.3451 36.257 59.8002 35.7162 59.8002 35.0462C59.8002 26.8134 53.0497 20.114 44.7538 20.114C40.8906 20.114 37.2469 21.5669 34.4735 24.1498H38.2473C38.9223 24.1498 39.4672 24.6906 39.4672 25.3605C39.4672 26.0304 38.9223 26.5712 38.2473 26.5712H31.7407C31.0657 26.5712 30.5207 26.0304 30.5207 25.3605V18.9033C30.5207 18.2334 31.0657 17.6926 31.7407 17.6926C32.4158 17.6926 32.9607 18.2334 32.9607 18.9033V22.2368C36.1652 19.323 40.3375 17.6926 44.7538 17.6926C54.3998 17.6926 62.2402 25.4735 62.2402 35.0462C62.2402 35.7162 61.6953 36.257 61.0202 36.257ZM57.7669 43.5213H51.2604C50.5853 43.5213 50.0404 44.0621 50.0404 44.732C50.0404 45.4019 50.5853 45.9427 51.2604 45.9427H55.0342C52.2607 48.5256 48.6252 49.9785 44.7538 49.9785C36.458 49.9785 29.7074 43.2791 29.7074 35.0462C29.7074 34.3763 29.1625 33.8355 28.4874 33.8355C27.8124 33.8355 27.2675 34.3763 27.2675 35.0462C27.2675 44.619 35.1079 52.3999 44.7538 52.3999C49.1864 52.3999 53.3506 50.7695 56.5469 47.8637V51.1892C56.5469 51.8591 57.0919 52.3999 57.7669 52.3999C58.442 52.3999 58.9869 51.8591 58.9869 51.1892V44.732C58.9869 44.0621 58.442 43.5213 57.7669 43.5213ZM66.7622 52.9165C69.0964 47.7346 72 41.2855 72 31.745C72 16.0137 60.703 10.961 55.8475 9.52428C45.9331 6.58627 34.3027 7.96649 26.2101 13.0515C18.2722 18.0316 14.8562 27.7819 17.41 37.9923C16.6374 39.1466 15.7997 40.4299 14.9538 41.7052C14.0022 43.1581 13.0506 44.6029 12.1967 45.8701C11.6761 46.6369 10.9685 47.6942 11.0011 48.9937C11.0336 50.269 11.8063 51.4959 13.075 52.2869C13.7257 52.6905 14.7423 53.1505 15.6126 53.4976C15.393 54.442 15.2954 55.4832 15.2954 56.815C15.2954 57.4123 15.5475 57.9531 15.9786 58.2921C16.0355 58.3324 16.0925 58.3647 16.1494 58.397C16.2389 58.5019 16.3446 58.6069 16.4666 58.6795C17.5564 59.3252 17.589 60.2212 17.5564 62.1825L17.5483 62.7314C17.5483 63.03 17.5158 63.3287 17.4914 63.6192C17.4344 64.2811 17.3694 65.0317 17.5239 65.8066C17.898 67.7034 19.5572 69.3258 21.745 69.9311C23.5343 70.4316 25.3643 70.254 27.0885 70.028L27.422 69.9876C28.8941 69.7939 30.2767 69.6163 31.5943 69.8343C34.0993 70.2621 36.4498 72.1023 37.0598 74.1202C37.2225 74.6449 37.7023 74.9839 38.231 74.9839C38.3449 74.9839 38.4669 74.9677 38.5807 74.9354C39.2232 74.7417 39.5892 74.0637 39.394 73.4261C38.4018 70.1571 34.9208 67.9455 32.001 67.4532C30.3255 67.1707 28.6826 67.3805 27.0967 67.5904L26.7632 67.6308C25.226 67.8325 23.7377 67.9778 22.3875 67.5985C21.314 67.2998 20.1347 66.4846 19.9069 65.3385C19.8175 64.8945 19.8663 64.3699 19.9069 63.821C19.9395 63.4659 19.9639 63.1027 19.972 62.7475L19.9801 62.2148C19.9964 60.9557 20.0208 59.5916 19.4271 58.4051C19.9964 58.4535 20.7121 58.5665 21.68 58.7844C22.3387 58.9297 22.9894 58.5342 23.1439 57.8804C23.2985 57.2266 22.8837 56.5809 22.233 56.4276C19.9883 55.911 18.752 55.8868 17.7272 56.0401C17.7679 54.8536 17.9224 54.0061 18.2234 53.1667C18.3372 52.86 18.321 52.529 18.1746 52.2385C18.0282 51.9479 17.7842 51.7219 17.4751 51.617C16.6211 51.3183 15.0595 50.6726 14.352 50.2287C13.7908 49.8816 13.4248 49.365 13.4166 48.9211C13.4004 48.4287 13.7664 47.8557 14.1974 47.2099C15.0595 45.9347 16.0111 44.4818 16.9708 43.0209C17.9143 41.5761 18.8659 40.1393 19.7117 38.8802C19.9069 38.5896 19.9639 38.2345 19.8744 37.8955C17.3043 28.3873 20.216 19.654 27.4789 15.0936C34.8883 10.4444 45.9901 9.13685 55.1155 11.8408C59.4505 13.1242 69.5275 17.6361 69.5275 31.745C69.5275 40.7689 66.8598 46.6934 64.5012 51.9237C61.3699 58.8732 58.6697 64.8784 64.8347 74.4431C65.0705 74.8063 65.4609 75 65.8594 75C66.0872 75 66.3149 74.9354 66.5182 74.8063C67.0876 74.4431 67.2502 73.7005 66.8842 73.1355C61.4675 64.6766 63.6879 59.7449 66.7622 52.9165ZM44.7538 28.9927C44.0788 28.9927 43.5338 29.5334 43.5338 30.2034V33.8355H39.8739C39.1988 33.8355 38.6539 34.3763 38.6539 35.0462C38.6539 35.7162 39.1988 36.257 39.8739 36.257H43.5338V39.8891C43.5338 40.5591 44.0788 41.0998 44.7538 41.0998C45.4289 41.0998 45.9738 40.5591 45.9738 39.8891V36.257H49.6337C50.3088 36.257 50.8537 35.7162 50.8537 35.0462C50.8537 34.3763 50.3088 33.8355 49.6337 33.8355H45.9738V30.2034C45.9738 29.5334 45.4289 28.9927 44.7538 28.9927Z" fill="#E36F34"/>
</svg>
